<svg aria-hidden="true" style="position: absolute; width: 0; height: 0; overflow: hidden;" version="1.1" xmlns="http://www.w3.org/2000/svg" xmlns:xlink="http://www.w3.org/1999/xlink">
<defs>
<symbol id="icon-company-logo" viewBox="0 0 75 32">
<path d="M31.857 8.795c-0.27-2.767-2.737-4.789-5.503-4.511-2.756 0.277-4.769 2.732-4.499 5.489s2.719 4.776 5.477 4.514c2.768-0.263 4.796-2.724 4.526-5.492zM28.111 5.444c0.061-0 0.107 0.012 0.164 0.028l0.012 0.003c0.022 0.112 0 0.164-0.059 0.259-0.103 0.167-0.217 0.327-0.331 0.486-0.201 0.282-0.403 0.564-0.541 0.886-0.299 0.697-0.23 1.51-0.159 2.331 0.062 0.719 0.124 1.444-0.060 2.104-0.222 0.794-0.778 1.313-1.474 1.7-0.039 0.007-0.081 0.003-0.122 0-0.009-0.001-0.017-0.001-0.025-0.002-0.005-0-0.011-0.001-0.016-0.001l-0.007-0.013c-0.040-0.075-0.042-0.080-0.013-0.166 0.037-0.111 0.111-0.225 0.181-0.333 0.027-0.041 0.053-0.081 0.076-0.12 0.242-0.403 0.479-0.839 0.554-1.31 0.093-0.588 0.043-1.193-0.006-1.797-0.063-0.767-0.125-1.535 0.102-2.268 0.28-0.9 0.935-1.37 1.723-1.789z"></path>
<path d="M43.69 23.395c-0.314-2.686-2.746-4.61-5.432-4.297-2.688 0.313-4.613 2.746-4.299 5.433s2.748 4.612 5.435 4.297c2.686-0.315 4.609-2.747 4.296-5.433zM38.265 20.224c0.65-0.048 1.258 0.11 1.782 0.5 0.848 0.631 1.281 1.673 1.424 2.694 0.152 1.077 0.137 2.573-0.565 3.475-0.383 0.492-0.867 0.691-1.466 0.765-0.639 0.062-1.278-0.11-1.8-0.482-0.825-0.595-1.249-1.573-1.402-2.553-0.175-1.116-0.169-2.678 0.555-3.62 0.385-0.501 0.865-0.7 1.472-0.778z"></path>
<path d="M15.783 0.245c0.872-0.114 1.858-0.025 2.706 0.189 0.516 0.13 1.030 0.307 1.558 0.381 0.303 0.043 0.621 0.039 0.927 0.045 0.049 0.849 0.213 2.883 0.115 3.63-0.156 0.030-0.276 0.022-0.433 0-0.161-0.186-0.237-0.602-0.333-0.844-0.355-0.884-1.056-1.564-1.934-1.925-1.101-0.452-2.417-0.394-3.502 0.075-1.14 0.493-2.069 1.478-2.522 2.633-0.701 1.788-0.696 4.083 0.091 5.843 0.545 1.22 1.515 2.293 2.784 2.769 1.211 0.455 2.528 0.32 3.688-0.212 0.518-0.264 0.997-0.657 1.305-1.156 0.174-0.282 0.303-0.818 0.579-1l0.077 0.031c0.297 0.376 0.408 1.55 0.506 2.055-1.119 0.986-2.468 1.639-3.951 1.835-1.941 0.255-3.967-0.137-5.535-1.347-1.428-1.102-2.295-2.833-2.509-4.607-0.249-2.062 0.206-4.142 1.511-5.783 1.202-1.512 2.971-2.396 4.874-2.614z"></path>
<path d="M52.235 5.142c-0.52-0.129-1.148-0.199-1.681-0.133-1.243 0.122-2.306 0.601-3.114 1.576-0.895 1.092-1.32 2.495-1.182 3.9 0.124 1.198 0.675 2.389 1.63 3.147 1.004 0.797 2.422 1.021 3.668 0.874 1.106-0.131 2.086-0.608 2.772-1.501 0.314-0.408 0.542-0.869 0.721-1.35-0.022-0.021-0.044-0.042-0.066-0.064-0.106-0.104-0.215-0.212-0.358-0.255-0.013 0.006-0.023 0.010-0.033 0.014-0.043 0.018-0.061 0.026-0.097 0.080-0.592 0.871-1.269 1.447-2.328 1.645-0.825 0.154-1.646 0.012-2.338-0.473-0.551-0.387-0.986-0.957-1.24-1.578 1.266-0.751 2.642-1.511 4.099-1.809 0.288-0.059 0.582-0.092 0.875-0.125 0.308-0.035 0.615-0.069 0.914-0.134 0.2-0.043 0.344-0.084 0.412-0.296 0.17-0.533-0.099-1.403-0.367-1.862-0.491-0.84-1.352-1.423-2.288-1.655zM50.947 5.989c0.237 0.001 0.49 0.018 0.718 0.081 0.386 0.106 0.735 0.335 0.923 0.696 0.13 0.25 0.232 0.651 0.13 0.924-0.086 0.23-0.272 0.387-0.477 0.508-0.256 0.151-0.563 0.248-0.859 0.342-0.101 0.032-0.2 0.063-0.295 0.096-0.517 0.179-1.026 0.373-1.519 0.612-0.113 0.050-0.255 0.14-0.407 0.236-0.285 0.18-0.602 0.38-0.817 0.377-0.115-0.096-0.144-0.176-0.156-0.32-0.080-0.958 0.306-2.047 0.925-2.771 0.454-0.53 1.166-0.726 1.834-0.78z"></path>
<path d="M61.547 5.050c-0.368-0.050-0.74-0.064-1.111-0.042-1.261 0.103-2.328 0.563-3.154 1.545-0.908 1.088-1.344 2.493-1.211 3.904 0.111 1.168 0.657 2.363 1.577 3.114 0.991 0.808 2.469 1.084 3.716 0.943 1.11-0.126 2.107-0.647 2.8-1.528 0.319-0.409 0.569-0.867 0.739-1.357-0.022-0.019-0.044-0.039-0.067-0.060-0.115-0.105-0.251-0.229-0.396-0.241-0.594 0.894-1.305 1.524-2.382 1.741-0.812 0.164-1.6 0.044-2.297-0.418-0.598-0.397-1.033-0.975-1.343-1.616 1.369-0.931 3.053-1.645 4.68-1.946 0.202-0.037 0.407-0.053 0.612-0.069 0.17-0.013 0.339-0.026 0.507-0.052 0.219-0.033 0.44-0.083 0.489-0.333 0.138-0.704-0.14-1.552-0.556-2.118-0.627-0.854-1.567-1.322-2.603-1.466zM60.345 6.023c0.424-0.034 0.837-0.055 1.246 0.095 0.392 0.143 0.708 0.426 0.879 0.81 0.113 0.252 0.161 0.535 0.055 0.798-0.061 0.148-0.172 0.283-0.301 0.378-0.308 0.225-1.070 0.491-1.732 0.722-0.327 0.114-0.629 0.22-0.841 0.308-0.34 0.152-0.669 0.336-0.996 0.52-0.182 0.102-0.363 0.204-0.547 0.3-0.154-0.938-0.057-1.894 0.453-2.716 0.422-0.679 1.017-1.038 1.783-1.213z"></path>
<path d="M28.907 16.304c1.004-0.006 3.825-0.131 4.586 0.070 0.064 0.087 0.058 0.089 0.050 0.198-0.176 0.296-0.551 0.415-0.812 0.628-0.15 0.122-0.286 0.297-0.331 0.488-0.168 0.709-0.102 1.528-0.102 2.256l-0.020 3.074c-0.005 0.733 0.018 1.483-0.068 2.212-0.123 1.043-0.583 2.012-1.426 2.662-1.050 0.81-2.517 0.99-3.801 0.816-1.124-0.152-2.221-0.639-2.921-1.562-0.634-0.837-0.795-1.815-0.66-2.838 0.036-0.181 0.081-0.355 0.146-0.528 0.239-0.638 0.707-1.162 1.339-1.433 0.667-0.286 1.508-0.307 2.178-0.018 0.326 0.14 0.531 0.381 0.651 0.715 0.073 0.204 0.097 0.379 0.004 0.577-0.27 0.255-0.878-0.087-1.256 0.019-0.349 0.098-0.615 0.342-0.782 0.658-0.29 0.549-0.297 1.268-0.089 1.846 0.185 0.515 0.603 0.931 1.095 1.159 0.585 0.27 1.407 0.338 2.018 0.111 0.473-0.176 0.821-0.552 1.012-1.015 0.165-0.398 0.242-0.856 0.28-1.283 0.087-0.963 0.196-6.777-0.016-7.406-0.224-0.663-0.986-0.683-1.161-1.087 0-0.098 0.002-0.165 0.049-0.251 0.012-0.023 0.026-0.045 0.038-0.067z"></path>
<path d="M49.651 27.076c0.428-1.060 0.798-2.152 1.192-3.225 0.308-0.836 0.688-1.7 0.876-2.57 0.040-0.185 0.058-0.369 0.006-0.554-0.158-0.565-0.887-0.52-1.052-0.956 0.023-0.096 0.009-0.137 0.101-0.196 0.169-0.108 3.144-0.119 3.509-0.073 0.121 0.015 0.208 0.043 0.288 0.14 0.008 0.21-0.042 0.305-0.231 0.412-0.303 0.171-0.688 0.258-0.915 0.539-0.357 0.443-1.702 4.23-2.034 5.091l-1.109 2.878c-0.279 0.723-0.541 1.508-0.956 2.166-0.252 0.398-0.591 0.783-1.001 1.020-0.599 0.345-1.36 0.408-2.022 0.222-0.515-0.145-0.986-0.464-1.233-0.949-0.195-0.384-0.243-0.895-0.1-1.304 0.107-0.305 0.354-0.557 0.648-0.689 0.191-0.085 0.502-0.158 0.699-0.051 0.469 0.255 0.163 1.097 0.343 1.546 0.061 0.151 0.149 0.257 0.303 0.319 0.251 0.101 0.686-0.037 0.912-0.147 0.764-0.373 1.085-1.573 1.339-2.315-0.321 0.006-0.691 0.045-1.007-0.010-0.049-0.008-0.111-0.021-0.155-0.047-0.105-0.061-0.172-0.171-0.226-0.276-0.249-0.486-0.418-1.051-0.613-1.563l-1.212-3.191c-0.239-0.627-0.455-1.281-0.748-1.884-0.218-0.45-0.51-0.909-0.959-1.157-0.223-0.123-0.516-0.121-0.667-0.345-0.026-0.152 0.001-0.245 0.048-0.39 0.804-0.033 4.036-0.117 4.63 0.049 0.033 0.113 0.038 0.27-0.007 0.382-0.071 0.176-0.412 0.231-0.569 0.294-0.169 0.068-0.316 0.171-0.382 0.349-0.072 0.197 0.024 0.513 0.081 0.712 0.246 0.872 0.643 1.734 0.97 2.583 0.409 1.060 0.777 2.16 1.253 3.191z"></path>
<path d="M43.961 1.037c0.714-0.037 1.391 0.054 2.014 0.428 0.455 0.273 0.841 0.683 0.956 1.214 0.063 0.288 0.043 0.593-0.125 0.844-0.182 0.272-0.55 0.484-0.873 0.524-0.194 0.024-0.422-0.002-0.578-0.128-0.361-0.292-0.193-0.81-0.261-1.209-0.037-0.215-0.149-0.396-0.335-0.512-0.281-0.176-0.72-0.235-1.039-0.146-0.279 0.077-0.479 0.274-0.608 0.528-0.409 0.807-0.182 1.861 0.070 2.677 0.856 0.021 1.716 0.004 2.573 0.003 0.002 0.363-0.004 0.721-0.032 1.083-0.827-0.001-1.656-0.013-2.483 0.018-0.053 0.85-0.032 1.714-0.037 2.566-0.008 1.275-0.133 2.683 0.159 3.924 0.044 0.115 0.093 0.223 0.153 0.331 0.258 0.469 0.416 0.419 0.875 0.57 0.156 0.051 0.247 0.115 0.315 0.26-0.006 0.123-0.025 0.17-0.098 0.269-0.041 0.026-0.057 0.041-0.11 0.050-0.166 0.032-4.158 0.014-4.384-0.023-0.155-0.026-0.264-0.060-0.362-0.192 0.064-0.377 0.484-0.35 0.736-0.594 0.289-0.279 0.434-0.653 0.514-1.040 0.175-0.842 0.107-1.795 0.104-2.655l-0.016-3.479-1.633-0.006c-0.033-0.359-0.035-0.722-0.045-1.083l1.626-0.001c-0.080-0.243-0.159-0.496-0.194-0.75-0.104-0.751 0.071-1.515 0.533-2.123 0.614-0.809 1.601-1.222 2.585-1.35z"></path>
<path d="M37.204 1.038c0.658-0.055 1.289-0.007 1.88 0.316 0.471 0.258 0.874 0.684 1.019 1.212 0.090 0.327 0.099 0.741-0.085 1.038-0.131 0.211-0.349 0.334-0.589 0.379-0.218 0.041-0.507 0.040-0.69-0.106-0.346-0.277-0.114-0.81-0.191-1.178-0.046-0.221-0.225-0.409-0.418-0.515-0.305-0.167-0.744-0.188-1.074-0.088-0.274 0.082-0.481 0.261-0.606 0.518-0.364 0.743-0.088 1.882 0.162 2.622 0.82 0.049 1.658 0.011 2.48 0.015 0.021 0.367 0.002 0.726-0.020 1.092-0.835-0.002-1.67 0.001-2.505 0.009-0.038 1.044-0.054 2.088-0.046 3.133-0.003 1.076-0.11 2.285 0.206 3.323 0.347 0.76 1.067 0.888 1.237 1.294-0.026 0.074-0.015 0.087-0.089 0.13-0.263 0.157-4.261 0.127-4.618 0.042-0.014-0.049-0.032-0.105-0.034-0.155-0.011-0.317 0.489-0.45 0.681-0.64 0.267-0.264 0.4-0.753 0.462-1.117 0.139-0.818 0.095-1.72 0.094-2.549l-0.007-3.463-1.628-0.007c-0.025-0.361-0.024-0.721-0.023-1.083 0.519 0.006 1.039 0.005 1.558-0.002-0.080-0.265-0.165-0.53-0.206-0.804-0.111-0.745 0.051-1.482 0.507-2.088 0.612-0.814 1.565-1.191 2.545-1.329z"></path>
</symbol>
<symbol id="icon-envelope" viewBox="0 0 31 32">
<path d="M25.858 5.926h-20.687c-1.426 0-2.586 1.16-2.586 2.586v15.515c0 1.426 1.16 2.586 2.586 2.586h20.687c1.426 0 2.586-1.16 2.586-2.586v-15.515c0-1.426-1.16-2.586-2.586-2.586zM25.858 8.512v0.661l-10.343 8.046-10.343-8.045v-0.662h20.687zM5.172 24.027v-11.579l9.55 7.428c0.226 0.178 0.506 0.274 0.794 0.274s0.567-0.097 0.794-0.274l9.55-7.428 0.003 11.579h-20.689z"></path>
</symbol>
<symbol id="icon-phone" viewBox="0 0 31 32">
<path d="M22.894 16.648c-0.12-0.12-0.262-0.215-0.419-0.281s-0.325-0.099-0.495-0.099-0.338 0.033-0.495 0.099c-0.157 0.065-0.299 0.16-0.419 0.281l-2.061 2.061c-0.955-0.284-2.738-0.931-3.868-2.061s-1.777-2.913-2.061-3.868l2.061-2.061c0.12-0.12 0.215-0.262 0.281-0.419s0.099-0.325 0.099-0.495c0-0.17-0.033-0.338-0.099-0.495s-0.16-0.299-0.281-0.419l-5.172-5.172c-0.12-0.12-0.262-0.216-0.419-0.281s-0.325-0.099-0.495-0.099-0.338 0.033-0.495 0.099c-0.157 0.065-0.299 0.16-0.419 0.281l-3.506 3.506c-0.491 0.491-0.768 1.166-0.758 1.855 0.030 1.841 0.517 8.236 5.557 13.276s11.435 5.526 13.277 5.557h0.036c0.683 0 1.328-0.269 1.817-0.758l3.506-3.506c0.12-0.12 0.215-0.262 0.281-0.419s0.099-0.325 0.099-0.495-0.033-0.338-0.099-0.495c-0.065-0.157-0.16-0.299-0.281-0.419l-5.172-5.173zM22.73 25.326c-1.614-0.027-7.134-0.46-11.472-4.799-4.352-4.352-4.774-9.892-4.799-11.473l2.592-2.592 3.344 3.344-1.672 1.672c-0.152 0.152-0.264 0.339-0.325 0.545s-0.070 0.424-0.027 0.634c0.031 0.149 0.79 3.674 2.936 5.821s5.672 2.905 5.821 2.936c0.21 0.045 0.428 0.037 0.634-0.024s0.393-0.173 0.545-0.326l1.673-1.672 3.343 3.343-2.594 2.592z"></path>
</symbol>
<symbol id="icon-map" viewBox="0 0 31 32">
<path d="M15.515 18.855c2.852 0 5.172-2.32 5.172-5.172s-2.32-5.172-5.172-5.172c-2.852 0-5.172 2.32-5.172 5.172s2.319 5.172 5.172 5.172zM15.515 11.098c1.426 0 2.586 1.16 2.586 2.586s-1.16 2.586-2.586 2.586c-1.426 0-2.586-1.16-2.586-2.586s1.16-2.586 2.586-2.586z"></path>
<path d="M14.765 28.958c0.219 0.156 0.481 0.24 0.75 0.24s0.531-0.084 0.75-0.24c0.393-0.278 9.631-6.948 9.593-15.275 0-5.703-4.64-10.343-10.343-10.343s-10.343 4.64-10.343 10.337c-0.037 8.333 9.2 15.003 9.594 15.281zM15.515 5.926c4.278 0 7.758 3.479 7.758 7.764 0.027 5.738-5.673 10.89-7.758 12.58-2.083-1.691-7.785-6.845-7.758-12.587 0-4.278 3.479-7.758 7.758-7.758z"></path>
</symbol>
<symbol id="icon-chevron-right" viewBox="0 0 31 32">
<path d="M12.425 22.691l7.305-7.305-7.305-7.305-1.81 1.81 5.495 5.495-5.495 5.495 1.81 1.81z"></path>
</symbol>
<symbol id="icon-Facebook" viewBox="0 0 31 32">
<path d="M28.16 16.744c0-7.112-5.731-12.878-12.8-12.878s-12.8 5.766-12.8 12.878c0 6.428 4.681 11.756 10.8 12.722v-8.999h-3.25v-3.723h3.25v-2.837c0-3.228 1.911-5.010 4.835-5.010 1.401 0 2.865 0.252 2.865 0.252v3.169h-1.614c-1.59 0-2.086 0.993-2.086 2.011v2.416h3.55l-0.567 3.723h-2.983v8.999c6.119-0.966 10.8-6.294 10.8-12.722z"></path>
</symbol>
<symbol id="icon-instagram" viewBox="0 0 32 32">
<path d="M16 2.881c4.275 0 4.781 0.019 6.462 0.094 1.563 0.069 2.406 0.331 2.969 0.55 0.744 0.288 1.281 0.638 1.837 1.194 0.563 0.563 0.906 1.094 1.2 1.838 0.219 0.563 0.481 1.412 0.55 2.969 0.075 1.688 0.094 2.194 0.094 6.463s-0.019 4.781-0.094 6.463c-0.069 1.563-0.331 2.406-0.55 2.969-0.288 0.744-0.637 1.281-1.194 1.837-0.563 0.563-1.094 0.906-1.837 1.2-0.563 0.219-1.413 0.481-2.969 0.55-1.688 0.075-2.194 0.094-6.463 0.094s-4.781-0.019-6.463-0.094c-1.563-0.069-2.406-0.331-2.969-0.55-0.744-0.288-1.281-0.637-1.838-1.194-0.563-0.563-0.906-1.094-1.2-1.837-0.219-0.563-0.481-1.413-0.55-2.969-0.075-1.688-0.094-2.194-0.094-6.463s0.019-4.781 0.094-6.463c0.069-1.563 0.331-2.406 0.55-2.969 0.288-0.744 0.638-1.281 1.194-1.838 0.563-0.563 1.094-0.906 1.838-1.2 0.563-0.219 1.412-0.481 2.969-0.55 1.681-0.075 2.188-0.094 6.463-0.094zM16 0c-4.344 0-4.887 0.019-6.594 0.094-1.7 0.075-2.869 0.35-3.881 0.744-1.056 0.412-1.95 0.956-2.837 1.85-0.894 0.888-1.438 1.781-1.85 2.831-0.394 1.019-0.669 2.181-0.744 3.881-0.075 1.713-0.094 2.256-0.094 6.6s0.019 4.887 0.094 6.594c0.075 1.7 0.35 2.869 0.744 3.881 0.413 1.056 0.956 1.95 1.85 2.837 0.887 0.887 1.781 1.438 2.831 1.844 1.019 0.394 2.181 0.669 3.881 0.744 1.706 0.075 2.25 0.094 6.594 0.094s4.888-0.019 6.594-0.094c1.7-0.075 2.869-0.35 3.881-0.744 1.050-0.406 1.944-0.956 2.831-1.844s1.438-1.781 1.844-2.831c0.394-1.019 0.669-2.181 0.744-3.881 0.075-1.706 0.094-2.25 0.094-6.594s-0.019-4.887-0.094-6.594c-0.075-1.7-0.35-2.869-0.744-3.881-0.394-1.063-0.938-1.956-1.831-2.844-0.887-0.887-1.781-1.438-2.831-1.844-1.019-0.394-2.181-0.669-3.881-0.744-1.712-0.081-2.256-0.1-6.6-0.1v0z"></path>
<path d="M16 7.781c-4.537 0-8.219 3.681-8.219 8.219s3.681 8.219 8.219 8.219 8.219-3.681 8.219-8.219c0-4.537-3.681-8.219-8.219-8.219zM16 21.331c-2.944 0-5.331-2.387-5.331-5.331s2.387-5.331 5.331-5.331c2.944 0 5.331 2.387 5.331 5.331s-2.387 5.331-5.331 5.331z"></path>
<path d="M26.462 7.456c0 1.060-0.859 1.919-1.919 1.919s-1.919-0.859-1.919-1.919c0-1.060 0.859-1.919 1.919-1.919s1.919 0.859 1.919 1.919z"></path>
</symbol>
<symbol id="icon-X" viewBox="0 0 31 32">
<path d="M21.985 6.426h3.533l-7.719 8.675 9.080 11.805h-7.11l-5.569-7.16-6.372 7.16h-3.535l8.256-9.279-8.711-11.201h7.29l5.034 6.544 5.822-6.544zM20.745 24.827h1.958l-12.637-16.43h-2.101l12.78 16.43z"></path>
</symbol>
<symbol id="icon-stars" viewBox="0 0 34 32">
<path d="M15.277 1.031c0.579-1.375 2.551-1.375 3.13 0l3.417 8.116c0.244 0.58 0.796 0.976 1.43 1.026l8.869 0.702c1.503 0.119 2.112 1.972 0.967 2.941l-6.757 5.718c-0.483 0.408-0.694 1.049-0.546 1.66l2.064 8.55c0.35 1.449-1.245 2.594-2.532 1.817l-7.593-4.582c-0.542-0.327-1.224-0.327-1.767 0l-7.593 4.582c-1.287 0.776-2.882-0.369-2.532-1.817l2.064-8.55c0.147-0.611-0.063-1.252-0.546-1.66l-6.757-5.718c-1.145-0.969-0.536-2.822 0.967-2.941l8.869-0.702c0.633-0.050 1.185-0.446 1.429-1.026l3.417-8.116z"></path>
</symbol>
<symbol id="icon-star" viewBox="0 0 32 32">
<path d="M32 12.408l-11.056-1.607-4.944-10.018-4.944 10.018-11.056 1.607 8 7.798-1.889 11.011 9.889-5.199 9.889 5.199-1.889-11.011 8-7.798zM16 23.547l-6.983 3.671 1.334-7.776-5.65-5.507 7.808-1.134 3.492-7.075 3.492 7.075 7.807 1.134-5.65 5.507 1.334 7.776-6.983-3.671z"></path>
</symbol>
<symbol id="icon-map-pin" viewBox="0 0 32 32">
<path fill="#fff" style="fill: var(--color1, #fff)" d="M16 22.667l1.333-2.667v-6.856c2.295-0.596 4-2.667 4-5.144 0-2.941-2.392-5.333-5.333-5.333s-5.333 2.392-5.333 5.333c0 2.477 1.705 4.548 4 5.144v6.856l1.333 2.667zM13.333 8c0-1.471 1.196-2.667 2.667-2.667s2.667 1.196 2.667 2.667c0 1.471-1.196 2.667-2.667 2.667s-2.667-1.196-2.667-2.667z"></path>
<path fill="#fff" style="fill: var(--color1, #fff)" d="M21.689 14.084l-0.711 2.571c3.455 0.955 5.688 2.791 5.688 4.679 0 2.523-4.38 5.333-10.667 5.333s-10.667-2.811-10.667-5.333c0-1.888 2.233-3.724 5.689-4.68l-0.711-2.571c-4.716 1.304-7.645 4.081-7.645 7.251 0 4.485 5.857 8 13.333 8s13.333-3.515 13.333-8c0-3.169-2.929-5.947-7.644-7.249z"></path>
</symbol>
<symbol id="icon-chevrons-right" viewBox="0 0 31 32">
<path fill="#fff" style="fill: var(--color1, #fff)" d="M13.179 10.509l5.536 5.491-5.536 5.491 1.802 1.818 7.369-7.309-7.369-7.309-1.802 1.818z"></path>
<path fill="#fff" style="fill: var(--color1, #fff)" d="M8.581 8.691l-1.802 1.818 5.536 5.491-5.536 5.491 1.802 1.818 7.369-7.309-7.369-7.309z"></path>
</symbol>
</defs>
</svg>